<svg width="205" height="44" viewBox="0 0 205 44" fill="none" xmlns="http://www.w3.org/2000/svg">
<g clip-path="url(#clip0_4034_694)">
<mask id="mask0_4034_694" style="mask-type:luminance" maskUnits="userSpaceOnUse" x="0" y="3" width="170" height="38">
<path d="M170 3H0V41H170V3Z" fill="white"/>
</mask>
<g mask="url(#mask0_4034_694)">
<path d="M35.5845 22.0001C35.5845 12.4534 27.7996 4.71436 18.1965 4.71436C8.59334 4.71436 0.808472 12.4534 0.808472 22.0001C0.808472 31.5467 8.59334 39.2858 18.1965 39.2858C27.7996 39.2858 35.5845 31.5467 35.5845 22.0001Z" fill="#0069FF"/>
<path d="M18 15C17.372 15 16.747 15.2993 16.2865 15.8912L12.6243 20.603C11.7919 21.6712 11.7919 23.3321 12.6243 24.4004L16.2865 29.1122C17.2082 30.2959 18.7918 30.2959 19.7135 29.1122L23.3757 24.4004C24.2081 23.3321 24.2081 21.6712 23.3757 20.603L19.7135 15.8912C19.253 15.2993 18.628 15 18 15Z" fill="white"/>
</g>
</g>
<path d="M54.912 27.688L55.44 30.568C54.792 30.88 53.256 31.264 51.312 31.264C45.72 31.264 42.84 27.76 42.84 23.152C42.84 17.632 46.776 14.584 51.672 14.584C53.568 14.584 55.008 14.944 55.656 15.304L54.888 18.184C54.168 17.872 53.136 17.584 51.816 17.584C48.936 17.584 46.68 19.336 46.68 22.936C46.68 26.176 48.6 28.216 51.84 28.216C52.968 28.216 54.168 28 54.912 27.688ZM57.6671 31V13.96H61.3151V20.68H61.3631C61.7471 20.152 62.2271 19.744 62.8031 19.456C63.3551 19.168 64.0271 19 64.6991 19C67.0271 19 68.8031 20.608 68.8031 24.16V31H65.1551V24.544C65.1551 23.008 64.6271 21.952 63.2591 21.952C62.2991 21.952 61.6991 22.576 61.4351 23.248C61.3391 23.464 61.3151 23.776 61.3151 24.04V31H57.6671ZM81.4976 24.064V28.168C81.4976 29.272 81.5456 30.352 81.6896 31H78.4016L78.1856 29.824H78.1136C77.3456 30.76 76.1456 31.264 74.7536 31.264C72.3776 31.264 70.9616 29.536 70.9616 27.664C70.9616 24.616 73.6976 23.176 77.8496 23.176V23.032C77.8496 22.384 77.5136 21.496 75.7136 21.496C74.5136 21.496 73.2416 21.904 72.4736 22.384L71.8016 20.032C72.6176 19.576 74.2256 18.976 76.3616 18.976C80.2736 18.976 81.4976 21.28 81.4976 24.064ZM77.9696 26.728V25.456C76.0496 25.456 74.5616 25.912 74.5616 27.304C74.5616 28.24 75.1856 28.696 76.0016 28.696C76.8896 28.696 77.6576 28.096 77.8976 27.352C77.9456 27.16 77.9696 26.944 77.9696 26.728ZM84.7258 17.08L88.3018 16.096V19.264H90.9178V21.952H88.3018V26.2C88.3018 27.616 88.6618 28.264 89.7418 28.264C90.2458 28.264 90.4858 28.24 90.8218 28.168L90.8458 30.928C90.3898 31.096 89.5018 31.24 88.4938 31.24C87.3178 31.24 86.3338 30.832 85.7338 30.232C85.0618 29.536 84.7258 28.408 84.7258 26.752V21.952H83.1658V19.264H84.7258V17.08ZM106.666 21.736V30.256C105.538 30.64 103.402 31.168 101.266 31.168C98.3143 31.168 96.1783 30.424 94.6903 29.008C93.2263 27.592 92.4103 25.48 92.4103 23.104C92.4343 17.728 96.3463 14.656 101.65 14.656C103.738 14.656 105.346 15.064 106.138 15.424L105.37 18.376C104.482 17.968 103.402 17.68 101.626 17.68C98.5783 17.68 96.2503 19.384 96.2503 22.912C96.2503 26.272 98.3623 28.216 101.362 28.216C102.178 28.216 102.85 28.12 103.138 28V24.592H100.642V21.736H106.666ZM109.514 31V15.04C110.642 14.848 112.226 14.704 114.458 14.704C116.714 14.704 118.322 15.136 119.402 16C120.458 16.816 121.13 18.16 121.13 19.744C121.13 21.328 120.626 22.696 119.642 23.584C118.394 24.736 116.546 25.288 114.386 25.288C113.906 25.288 113.474 25.264 113.138 25.192V31H109.514ZM113.138 17.608V22.384C113.45 22.456 113.81 22.48 114.362 22.48C116.306 22.48 117.506 21.496 117.506 19.864C117.506 18.376 116.474 17.488 114.626 17.488C113.906 17.488 113.402 17.536 113.138 17.608ZM126.603 31V17.896H122.235V14.824H134.667V17.896H130.251V31H126.603ZM141.459 31V15.04C142.587 14.848 144.171 14.704 146.403 14.704C148.659 14.704 150.267 15.136 151.347 16C152.403 16.816 153.075 18.16 153.075 19.744C153.075 21.328 152.571 22.696 151.587 23.584C150.339 24.736 148.491 25.288 146.331 25.288C145.851 25.288 145.419 25.264 145.083 25.192V31H141.459ZM145.083 17.608V22.384C145.395 22.456 145.755 22.48 146.307 22.48C148.251 22.48 149.451 21.496 149.451 19.864C149.451 18.376 148.419 17.488 146.571 17.488C145.851 17.488 145.347 17.536 145.083 17.608ZM155.284 31V13.96H158.932V20.68H158.98C159.364 20.152 159.844 19.744 160.42 19.456C160.972 19.168 161.644 19 162.316 19C164.644 19 166.42 20.608 166.42 24.16V31H162.772V24.544C162.772 23.008 162.244 21.952 160.876 21.952C159.916 21.952 159.316 22.576 159.052 23.248C158.956 23.464 158.932 23.776 158.932 24.04V31H155.284ZM174.963 18.976C178.539 18.976 180.939 21.448 180.939 25C180.939 29.296 177.891 31.264 174.747 31.264C171.315 31.264 168.675 29.008 168.675 25.216C168.675 21.4 171.171 18.976 174.963 18.976ZM174.843 21.592C173.115 21.592 172.443 23.392 172.443 25.12C172.443 27.136 173.283 28.648 174.843 28.648C176.283 28.648 177.171 27.232 177.171 25.096C177.171 23.368 176.499 21.592 174.843 21.592ZM183.702 17.08L187.278 16.096V19.264H189.894V21.952H187.278V26.2C187.278 27.616 187.638 28.264 188.718 28.264C189.222 28.264 189.462 28.24 189.798 28.168L189.822 30.928C189.366 31.096 188.478 31.24 187.47 31.24C186.294 31.24 185.31 30.832 184.71 30.232C184.038 29.536 183.702 28.408 183.702 26.752V21.952H182.142V19.264H183.702V17.08ZM197.51 18.976C201.086 18.976 203.486 21.448 203.486 25C203.486 29.296 200.438 31.264 197.294 31.264C193.862 31.264 191.222 29.008 191.222 25.216C191.222 21.4 193.718 18.976 197.51 18.976ZM197.39 21.592C195.662 21.592 194.99 23.392 194.99 25.12C194.99 27.136 195.83 28.648 197.39 28.648C198.83 28.648 199.718 27.232 199.718 25.096C199.718 23.368 199.046 21.592 197.39 21.592Z" fill="white"/>
<defs>
<clipPath id="clip0_4034_694">
<rect width="170" height="38" fill="white" transform="translate(0 3)"/>
</clipPath>
</defs>
</svg>
