<svg width="28" height="28" viewBox="0 0 28 28" fill="none" xmlns="http://www.w3.org/2000/svg">
<path d="M14 2.16675C7.58331 2.16675 2.33331 7.41675 2.33331 13.8334C2.33331 20.2501 7.58331 25.5001 14 25.5001C20.4166 25.5001 25.6666 20.2501 25.6666 13.8334C25.6666 7.41675 20.4166 2.16675 14 2.16675ZM20.6666 17.0834L19.9166 19.8334C19.8333 20.1667 19.4166 20.4167 19.0833 20.3334C19 20.3334 18.8333 20.2501 18.75 20.1667L18.4166 19.8334C15.0833 22.3334 10.4166 21.6667 7.91665 18.3334C7.00243 17.0867 6.50269 15.5086 6.49998 13.8468C6.49925 13.3824 6.87326 12.9983 7.33769 13.0001C7.83524 13.002 8.16659 13.3349 8.16659 13.8334C8.16659 17.0834 10.7499 19.6667 13.9999 19.6667C15.1666 19.6667 16.3333 19.3334 17.2499 18.6667L16.7499 18.1667C16.5715 17.9883 16.5204 17.725 16.5967 17.498C16.6448 17.3548 16.7632 17.2461 16.9081 17.2031L19.8333 16.3334C20.066 16.2479 20.3265 16.3027 20.5 16.4735C20.7522 16.722 20.6705 17.0684 20.6666 17.0834ZM6.99998 10.7501L7.74998 8.00008C7.83331 7.66675 8.24998 7.41675 8.58331 7.50008C8.66665 7.50008 8.83331 7.58342 8.91665 7.66675L9.24998 8.00008C12.4166 5.33342 17.1666 5.75008 19.8333 9.00008C20.9166 10.3334 21.5833 12.0001 21.5833 13.7501C21.5 14.3334 21.1666 14.6667 20.6666 14.6667C20.1666 14.6667 19.8333 14.3334 19.8333 13.8334C19.8333 10.5834 17.25 8.00008 14 8.00008C12.6666 8.00008 11.4166 8.41675 10.4166 9.25008L10.9166 9.75008C11.1302 9.96368 11.1613 10.299 11.0099 10.5481C10.9664 10.6197 10.8974 10.6725 10.8171 10.6964L7.83331 11.5834C7.58045 11.6603 7.30696 11.5856 7.1354 11.3928C6.89264 11.12 6.99425 10.7687 6.99998 10.7501Z" fill="white"/>
</svg>
