<svg width="26" height="34" viewBox="0 0 26 34" fill="none" xmlns="http://www.w3.org/2000/svg">
<path d="M4.29329 11.2112V7.97228C4.29329 5.67508 6.16274 3.80562 8.45994 3.80562C10.7571 3.80562 12.6266 5.67508 12.6266 7.97228V10.7501C12.7711 10.7501 12.9074 10.7835 13.049 10.7974C14.0711 9.68482 14.7099 8.21413 14.7099 6.58348C14.7099 3.13221 11.9115 0.333496 8.45994 0.333496C5.00867 0.333496 2.20996 3.13221 2.20996 6.58348C2.20996 8.42801 3.02402 10.0668 4.29329 11.2112Z" fill="white"/>
<path d="M23.0432 15.6113C21.8932 15.6113 20.9599 16.5446 20.9599 17.6946V18.0417C20.9599 18.2335 20.8045 18.3889 20.6128 18.3889C20.421 18.3889 20.2656 18.2335 20.2656 18.0417V16.3056C20.2656 15.1556 19.3323 14.2222 18.1823 14.2222C17.0323 14.2222 16.099 15.1556 16.099 16.3056V18.0417C16.099 18.2335 15.9434 18.3889 15.7516 18.3889C15.5601 18.3889 15.4045 18.2335 15.4045 18.0417V14.9168C15.4045 13.7668 14.4711 12.8334 13.3211 12.8334C12.1711 12.8334 11.2378 13.7668 11.2378 14.9168V18.0417C11.2378 18.2335 11.0822 18.3889 10.8907 18.3889C10.6989 18.3889 10.5433 18.2335 10.5433 18.0417V7.97224C10.5433 6.82224 9.60995 5.88892 8.45995 5.88892C7.30995 5.88892 6.37662 6.82224 6.37662 7.97224V20.4722C5.99338 20.4722 5.68235 20.1612 5.68235 19.7779V17.0001H4.99622C2.71147 17.0001 0.819896 18.8446 0.821168 21.1294C0.828034 28.464 6.16707 33.6667 9.45025 33.6667H18.1823C22.0168 33.6667 25.1266 30.557 25.1266 26.7222V17.6946C25.1266 16.5446 24.1932 15.6113 23.0432 15.6113Z" fill="white"/>
</svg>
