<svg width="30" height="30" viewBox="0 0 30 30" fill="none" xmlns="http://www.w3.org/2000/svg">
<path fill-rule="evenodd" clip-rule="evenodd" d="M2.75052 8.72468C2.41553 7.06238 3.48472 5.44265 5.14411 5.09805L11.875 3.70024C14.0488 3.24881 16.87 2.71624 19.0932 2.30625C20.6149 2.02562 22.0722 2.92406 22.47 4.37218C22.687 5.16152 22.8965 5.97287 23.0576 6.69429H8.56873C5.85753 6.69429 3.61844 8.71563 3.27626 11.3335L2.75052 8.72468ZM3.23097 20.3307C2.93146 20.1805 2.70166 19.8989 2.63034 19.545L0.539579 9.17024C-0.0402784 6.29287 1.81071 3.48677 4.68551 2.88977L11.4164 1.49196C13.6163 1.03512 16.4583 0.498757 18.6841 0.0882654C21.3121 -0.39636 23.9247 1.15389 24.6448 3.77459C24.906 4.72497 25.166 5.73952 25.348 6.61628C25.3623 6.68519 25.37 6.75395 25.3715 6.82188C27.759 7.35355 29.5439 9.48436 29.5439 12.032V24.6622C29.5439 27.6102 27.1541 30 24.2062 30H8.56873C5.62077 30 3.23097 27.6102 3.23097 24.6622V20.3307ZM9.02557 15.4747C9.6967 13.5173 12.2605 13.0647 13.5611 14.6742L16.1822 17.9174C16.3254 18.0945 16.5918 18.1048 16.748 17.9391L17.9148 16.7014C19.0553 15.4918 21.0178 15.63 21.9777 16.9874L24.6526 20.7699C25.8849 22.5127 24.6386 24.9204 22.5041 24.9204H9.47084C7.66537 24.9204 6.39623 23.1436 6.98179 21.4357L9.02557 15.4747ZM22.4019 14.7712C23.2322 14.7712 23.9055 14.098 23.9055 13.2676C23.9055 12.4371 23.2322 11.764 22.4019 11.764C21.5714 11.764 20.8983 12.4371 20.8983 13.2676C20.8983 14.098 21.5714 14.7712 22.4019 14.7712ZM11.8071 16.0919C11.6212 15.8618 11.255 15.9265 11.1591 16.2062L9.11534 22.1672C9.03168 22.4112 9.21298 22.665 9.47091 22.665H22.5042C22.8091 22.665 22.9871 22.321 22.8111 22.0721L20.1363 18.2895C19.9992 18.0956 19.7189 18.0759 19.5559 18.2488L18.3891 19.4863C17.2956 20.6461 15.4301 20.5749 14.4281 19.335L11.8071 16.0919Z" fill="white"/>
</svg>
