<svg width="30" height="30" viewBox="0 0 30 30" fill="none" xmlns="http://www.w3.org/2000/svg">
<path fill-rule="evenodd" clip-rule="evenodd" d="M27.9341 11.0861C29.006 11.796 30 13.169 30 15.0097C30 16.8504 29.006 18.2234 27.9342 18.9334C28.9865 22.1427 26.8359 25.7505 23.6134 26.1899C23.2642 28.224 21.6421 29.8034 19.641 29.9951V20.0364L20.3571 19.3199C22.1547 20.2416 24.3691 18.8762 24.3497 16.8471C24.3497 15.3238 23.1104 14.0845 21.5871 14.0845C19.5583 14.0649 18.1931 16.2786 19.1139 18.0763L18.14 19.0508C17.9752 19.2157 17.8826 19.4392 17.8826 19.6723V29.7312C16.7013 29.211 15.8741 28.0297 15.8741 26.6582V15.6986C18.7976 14.6673 18.1339 10.3795 14.995 10.3176C11.8565 10.3792 11.1918 14.6667 14.1157 15.6986V26.6582C14.1157 28.0296 13.2885 29.2109 12.1072 29.7312V19.6722C12.1072 19.4391 12.0147 19.2156 11.8499 19.0508L10.876 18.0762C11.7969 16.2786 10.4314 14.065 8.40278 14.0844C6.87947 14.0844 5.6402 15.3238 5.6402 16.8471C5.62056 18.8762 7.83516 20.2413 9.63278 19.3198L10.3488 20.0363V29.9951C8.34774 29.8034 6.72561 28.224 6.37645 26.1898C3.1544 25.7506 1.00316 22.143 2.05569 18.9333C-0.683441 17.1495 -0.687017 12.8732 2.05569 11.0861C1.00334 7.87679 3.15399 4.26901 6.37645 3.82958C6.74917 1.65813 8.57258 0.00463867 10.759 0.00463867C15.2108 0.188275 15.2119 6.53366 10.759 6.71783C10.2735 6.71783 9.87984 7.11147 9.87984 7.59703C9.87984 8.08258 10.2735 8.47623 10.759 8.47623C12.5191 8.47623 14.0742 7.5829 14.9949 6.22565C15.9156 7.5829 17.4707 8.47623 19.2307 8.47623C19.7163 8.47623 20.1099 8.08258 20.1099 7.59703C20.1099 7.11147 19.7163 6.71783 19.2307 6.71783C14.7795 6.53431 14.7771 0.189447 19.2307 0.00463867C21.4172 0.00463867 23.2406 1.65813 23.6133 3.82958C26.8354 4.26883 28.9866 7.87638 27.9341 11.0861ZM13.9907 13.0802C13.9907 12.5265 14.4412 12.076 14.995 12.076C15.5487 12.076 15.9993 12.5265 15.9993 13.0802C15.9443 14.4121 14.0458 14.4125 13.9907 13.0802ZM7.39868 16.8471C7.39868 17.4008 7.84919 17.8513 8.40291 17.8513C9.7352 17.7962 9.73484 15.8978 8.40291 15.8428C7.84913 15.8428 7.39868 16.2933 7.39868 16.8471ZM21.5871 15.8429C22.1408 15.8429 22.5913 16.2934 22.5913 16.8471C22.5913 17.4008 22.1408 17.8513 21.5871 17.8514C20.2551 17.7964 20.2548 15.898 21.5871 15.8429Z" fill="white"/>
</svg>
